<mxfile host="app.diagrams.net" modified="2023-10-12T12:32:02.064Z" agent="Mozilla/5.0 (Windows NT 10.0; Win64; x64) AppleWebKit/537.36 (KHTML, like Gecko) Chrome/117.0.0.0 Safari/537.36" version="22.0.4" etag="P_u8O4nRXWeruiQw2El6" type="github">
  <diagram name="Page-1" id="tbCA8YlJYpJ-s6K7m9eO">
    <mxGraphModel>
      <root>
        <mxCell id="0" />
        <mxCell id="1" parent="0" />
      </root>
    </mxGraphModel>
  </diagram>
</mxfile>
